<svg width="48" height="48" viewBox="0 0 48 48" fill="none" xmlns="http://www.w3.org/2000/svg">
<path d="M40 32H8V8H28.2C27.9306 6.68027 27.9306 5.31973 28.2 4H8C5.8 4 4 5.8 4 8V44L12 36H40C42.2 36 44 34.2 44 32V13.96C42.84 14.84 41.48 15.5 40 15.8V32Z" fill="#F5F5F5"/>
<path d="M38 12C41.3137 12 44 9.31371 44 6C44 2.68629 41.3137 0 38 0C34.6863 0 32 2.68629 32 6C32 9.31371 34.6863 12 38 12Z" fill="#F5F5F5"/>
<path d="M12 24H28V28H12V24ZM12 18H36V22H12V18ZM12 16H36V15.8C33.6243 15.2966 31.5129 13.9459 30.06 12H12V16Z" fill="#F5F5F5"/>
</svg>
