<svg width="30" height="30" viewBox="0 0 30 30" fill="none" xmlns="http://www.w3.org/2000/svg">
<path fill-rule="evenodd" clip-rule="evenodd" d="M17.502 3.74515H12.502L12.502 4.99515C12.4203 5.86471 12.1681 6.15848 11.252 6.24515H10.002V11.2451H11.252C12.1215 11.3268 12.4153 11.579 12.502 12.4951V13.7451H17.502V12.4951C17.5836 11.6256 17.8359 11.3318 18.752 11.2451H20.002V6.24515H18.752C17.8824 6.16352 17.5886 5.91125 17.502 4.99515V3.74515ZM12.502 9.99515C12.5886 10.9112 12.8824 11.1635 13.752 11.2451H16.252C17.1681 11.1585 17.4203 10.8647 17.502 9.99515V7.49515C17.4153 6.57905 17.1215 6.32677 16.252 6.24515L13.752 6.24515C12.8359 6.33182 12.5836 6.62558 12.502 7.49515V9.99515Z" fill="#B1DD40"/>
<path fill-rule="evenodd" clip-rule="evenodd" d="M22.501 16.2454H7.50098V17.4954C7.41935 18.3649 7.16708 18.6587 6.25098 18.7454H5.00098V24.9954H7.50098H22.501H25.001V18.7454H23.751C22.8814 18.6637 22.5876 18.4115 22.501 17.4954V16.2454ZM22.501 22.4954V19.9954C22.4143 19.0793 22.1205 18.827 21.251 18.7454L8.75098 18.7454C7.83488 18.832 7.5826 19.1258 7.50098 19.9954V22.4954H22.501Z" fill="#B1DD40"/>
</svg>
